<mxfile host="app.diagrams.net" modified="2024-01-03T10:53:55.532Z" agent="Mozilla/5.0 (Linux; Android 10; K) AppleWebKit/537.36 (KHTML, like Gecko) Chrome/120.0.0.0 Safari/537.36 EdgA/120.0.0.0" version="22.1.16" etag="8DzfFI82MalcsSXCksqR" type="github">
  <diagram name="Pagina-1" id="8Hb--EYqPr2VeBlzxDRI">
    <mxGraphModel>
      <root>
        <mxCell id="0" />
        <mxCell id="1" parent="0" />
      </root>
    </mxGraphModel>
  </diagram>
</mxfile>
